<svg width="17" height="17" viewBox="0 0 17 17" fill="none" xmlns="http://www.w3.org/2000/svg">
<path d="M8.302 0.850098C10.361 0.855396 12.3337 1.67773 13.7868 3.13648C15.24 4.59522 16.0547 6.57109 16.052 8.6301C16.0451 10.6411 15.2568 12.5707 13.8536 14.0112C12.4503 15.4517 10.5421 16.2904 8.532 16.3501H8.282C6.27095 16.3459 4.34029 15.5601 2.89788 14.1587C1.45547 12.7574 0.614275 10.8502 0.552002 8.8401V8.5901C0.554652 6.5364 1.37234 4.56773 2.82546 3.11648C4.27858 1.66524 6.24831 0.850096 8.302 0.850098ZM10.252 9.3501H6.352C6.502 12.2501 7.522 14.6901 8.232 14.8501H8.302C8.982 14.8501 10.022 12.4801 10.232 9.6201L10.252 9.3501ZM14.512 9.3501H11.752C11.662 11.3101 11.222 13.1301 10.572 14.4301C11.5859 14.0337 12.479 13.3796 13.1629 12.5326C13.8468 11.6856 14.2981 10.6748 14.472 9.6001L14.512 9.3501ZM4.842 9.3501H2.102C2.23802 10.474 2.67626 11.5399 3.37007 12.4345C4.06389 13.3291 4.9873 14.0187 6.042 14.4301C5.35494 12.9532 4.96099 11.3571 4.882 9.7301L4.852 9.3501H4.842ZM6.042 2.7701L5.922 2.8201C4.89466 3.2432 3.99844 3.93211 3.32536 4.81608C2.65228 5.70005 2.22659 6.74723 2.092 7.8501H4.842C4.932 6.0201 5.322 4.3101 5.902 3.0401L6.042 2.7701ZM8.292 2.3501C7.592 2.3501 6.512 4.8601 6.352 7.8501H10.252C10.102 4.9501 9.072 2.5101 8.362 2.3501H8.292ZM10.572 2.7801L10.602 2.8301C11.3176 4.40956 11.7086 6.11665 11.752 7.8501H14.502C14.3631 6.72981 13.9248 5.66767 13.2332 4.77546C12.5416 3.88324 11.6223 3.19395 10.572 2.7801Z" fill="#222222"/>
</svg>
