<svg width="33" height="33" viewBox="0 0 33 33" fill="none" xmlns="http://www.w3.org/2000/svg">
<rect x="0.332031" y="0.600098" width="32" height="32" rx="16" fill="#FF385C"/>
<path d="M18.207 18.4751L21.582 21.8501M15.207 19.6001C15.7487 19.6001 16.2851 19.4934 16.7856 19.2861C17.2861 19.0788 17.7408 18.775 18.1238 18.3919C18.5069 18.0089 18.8107 17.5541 19.018 17.0537C19.2253 16.5532 19.332 16.0168 19.332 15.4751C19.332 14.9334 19.2253 14.397 19.018 13.8965C18.8107 13.3961 18.5069 12.9413 18.1238 12.5583C17.7408 12.1752 17.2861 11.8714 16.7856 11.6641C16.2851 11.4568 15.7487 11.3501 15.207 11.3501C14.113 11.3501 13.0638 11.7847 12.2902 12.5583C11.5166 13.3319 11.082 14.3811 11.082 15.4751C11.082 16.5691 11.5166 17.6183 12.2902 18.3919C13.0638 19.1655 14.113 19.6001 15.207 19.6001Z" stroke="white" stroke-width="2"/>
</svg>
