<svg width="30" height="29" viewBox="0 0 30 29" fill="none" xmlns="http://www.w3.org/2000/svg">
<path d="M15.302 0.256348C7.3895 0.256348 0.958252 6.6876 0.958252 14.6001C0.958252 22.5126 7.3895 28.9438 15.302 28.9438C23.2145 28.9438 29.6458 22.5126 29.6458 14.6001C29.6458 6.6876 23.2145 0.256348 15.302 0.256348ZM15.302 26.5063C11.5333 26.5063 8.177 24.7438 5.99263 21.997C7.51287 20.0082 9.63314 18.5618 12.0395 17.872C11.1721 17.3221 10.4577 16.562 9.96277 15.6622C9.46779 14.7624 9.20824 13.7521 9.20825 12.7251C9.20825 11.1089 9.85027 9.55897 10.9931 8.41617C12.1359 7.27337 13.6858 6.63135 15.302 6.63135C16.9182 6.63135 18.4681 7.27337 19.6109 8.41617C20.7537 9.55897 21.3958 11.1089 21.3958 12.7251C21.3965 13.7535 21.1373 14.7654 20.6423 15.6668C20.1474 16.5683 19.4326 17.33 18.5645 17.8813C20.9712 18.5706 23.0916 20.0171 24.6114 22.0063C23.4992 23.4096 22.0841 24.5432 20.472 25.3225C18.8599 26.1017 17.0925 26.5064 15.302 26.5063Z" fill="#717171"/>
</svg>
