<svg width="67" height="18" viewBox="0 0 67 18" fill="none" xmlns="http://www.w3.org/2000/svg">
<path d="M5.98676 17.7197C5.18766 17.7197 4.45256 17.5595 3.78126 17.2392C3.11006 16.9189 2.53476 16.4704 2.02326 15.8938C1.51186 15.3173 1.12836 14.6446 0.840664 13.9079C0.552964 13.1391 0.425064 12.3063 0.425064 11.4094C0.425064 10.5125 0.584962 9.6476 0.872562 8.8788C1.16026 8.1101 1.57576 7.4374 2.08726 6.8288C2.59866 6.2522 3.20596 5.7717 3.90916 5.4514C4.61236 5.1311 5.34756 4.9709 6.17856 4.9709C6.97766 4.9709 7.68086 5.1311 8.32016 5.4834C8.95946 5.8038 9.47086 6.2842 9.88636 6.8928L9.98226 5.3233H12.923V17.3993H9.98226L9.88636 15.6376C9.47086 16.2782 8.92746 16.7907 8.22426 17.1751C7.58496 17.5275 6.81786 17.7197 5.98676 17.7197ZM6.75396 14.8368C7.32926 14.8368 7.84066 14.6766 8.32016 14.3883C8.76766 14.068 9.11926 13.6516 9.40696 13.1391C9.66266 12.6266 9.79046 12.018 9.79046 11.3453C9.79046 10.6726 9.66266 10.064 9.40696 9.5515C9.15126 9.039 8.76766 8.6226 8.32016 8.3023C7.87266 7.9819 7.32926 7.8538 6.75396 7.8538C6.17856 7.8538 5.66716 8.014 5.18766 8.3023C4.74026 8.6226 4.38866 9.039 4.10096 9.5515C3.84526 10.064 3.71736 10.6726 3.71736 11.3453C3.71736 12.018 3.84526 12.6266 4.10096 13.1391C4.35666 13.6516 4.74026 14.068 5.18766 14.3883C5.66716 14.6766 6.17856 14.8368 6.75396 14.8368ZM17.9413 2.056C17.9413 2.40835 17.8774 2.72868 17.7175 2.98493C17.5577 3.24119 17.334 3.46541 17.0463 3.6256C16.7586 3.7857 16.439 3.8498 16.1194 3.8498C15.7997 3.8498 15.4801 3.7857 15.1924 3.6256C14.9047 3.46541 14.681 3.24119 14.5212 2.98493C14.3613 2.69664 14.2974 2.40835 14.2974 2.056C14.2974 1.70365 14.3613 1.38333 14.5212 1.12707C14.681 0.838777 14.9047 0.646587 15.1924 0.486427C15.4801 0.326267 15.7997 0.262207 16.1194 0.262207C16.439 0.262207 16.7586 0.326267 17.0463 0.486427C17.334 0.646587 17.5577 0.870817 17.7175 1.12707C17.8454 1.38333 17.9413 1.67162 17.9413 2.056ZM14.5212 17.3673V5.2912H17.7175V17.3673H14.5212ZM26.2519 8.4624V8.4944C26.0921 8.4304 25.9003 8.3983 25.7404 8.3663C25.5487 8.3343 25.3888 8.3343 25.1971 8.3343C24.3021 8.3343 23.6308 8.5905 23.1833 9.1351C22.7039 9.6796 22.4801 10.4484 22.4801 11.4414V17.3673H19.2838V5.2912H22.2244L22.3203 7.1171C22.64 6.4764 23.0235 5.9959 23.5669 5.6436C24.0783 5.2912 24.6856 5.1311 25.3888 5.1311C25.6126 5.1311 25.8363 5.1631 26.0281 5.1951C26.124 5.2272 26.1879 5.2272 26.2519 5.2592V8.4624ZM27.5304 17.3673V0.326267H30.7268V6.8288C31.1743 6.2522 31.6857 5.8037 32.325 5.4514C32.9643 5.1311 33.6675 4.9389 34.4666 4.9389C35.2656 4.9389 36.0008 5.099 36.672 5.4194C37.3433 5.7397 37.9186 6.1881 38.4301 6.7647C38.9415 7.3413 39.325 8.014 39.6127 8.7507C39.9004 9.5195 40.0282 10.3523 40.0282 11.2492C40.0282 12.1461 39.8684 13.011 39.5808 13.7797C39.2931 14.5485 38.8776 15.2212 38.3661 15.8298C37.8547 16.4064 37.2474 16.8868 36.5442 17.2072C35.841 17.5275 35.1058 17.6876 34.2748 17.6876C33.4757 17.6876 32.7725 17.5275 32.1332 17.1751C31.4939 16.8548 30.9825 16.3743 30.567 15.7657L30.4711 17.3353L27.5304 17.3673ZM33.6994 14.8368C34.2748 14.8368 34.7862 14.6766 35.2656 14.3883C35.7131 14.068 36.0647 13.6516 36.3524 13.1391C36.6081 12.6266 36.736 12.018 36.736 11.3453C36.736 10.6726 36.6081 10.064 36.3524 9.5515C36.0647 9.039 35.7131 8.6226 35.2656 8.3023C34.8182 7.9819 34.2748 7.8538 33.6994 7.8538C33.1241 7.8538 32.6127 8.014 32.1332 8.3023C31.6857 8.6226 31.3341 9.039 31.0464 9.5515C30.7907 10.064 30.6629 10.6726 30.6629 11.3453C30.6629 12.018 30.7907 12.6266 31.0464 13.1391C31.3021 13.6516 31.6857 14.068 32.1332 14.3883C32.6127 14.6766 33.1241 14.8368 33.6994 14.8368ZM41.2429 17.3673V5.2912H44.1835L44.2794 6.8608C44.631 6.2842 45.1105 5.8358 45.7178 5.4834C46.3251 5.1311 47.0283 4.9709 47.8274 4.9709C48.7224 4.9709 49.4895 5.1951 50.1288 5.6116C50.8 6.028 51.3115 6.6366 51.6631 7.4054C52.0147 8.1741 52.2064 9.103 52.2064 10.1601V17.3993H49.0101V10.5765C49.0101 9.7437 48.8183 9.071 48.4347 8.5905C48.0512 8.1101 47.5397 7.8538 46.8685 7.8538C46.389 7.8538 45.9735 7.9499 45.5899 8.1741C45.2383 8.3983 44.9507 8.6866 44.7269 9.1031C44.5032 9.4874 44.4073 9.9679 44.4073 10.4484V17.3673H41.2429ZM53.8046 17.3673V0.326267H57.001V6.8288C57.4485 6.2522 57.9599 5.8037 58.5992 5.4514C59.2385 5.1311 59.9417 4.9389 60.7408 4.9389C61.5399 4.9389 62.275 5.099 62.9463 5.4194C63.6175 5.7397 64.1928 6.1881 64.7041 6.7647C65.2161 7.3413 65.5991 8.014 65.8871 8.7507C66.1751 9.5195 66.3021 10.3523 66.3021 11.2492C66.3021 12.1461 66.1431 13.011 65.8551 13.7797C65.5671 14.5485 65.1521 15.2212 64.6401 15.8298C64.1289 16.4064 63.5216 16.8868 62.8184 17.2072C62.1152 17.5275 61.38 17.6876 60.549 17.6876C59.7499 17.6876 59.0467 17.5275 58.4074 17.1751C57.7681 16.8548 57.2567 16.3743 56.8412 15.7657L56.7453 17.3353L53.8046 17.3673ZM60.0056 14.8368C60.5809 14.8368 61.0924 14.6766 61.5718 14.3883C62.0193 14.068 62.3709 13.6516 62.6586 13.1391C62.9143 12.6266 63.0422 12.018 63.0422 11.3453C63.0422 10.6726 62.9143 10.064 62.6586 9.5515C62.4029 9.039 62.0193 8.6226 61.5718 8.3023C61.1243 7.9819 60.5809 7.8538 60.0056 7.8538C59.4302 7.8538 58.9188 8.014 58.4394 8.3023C57.9919 8.6226 57.6403 9.039 57.3526 9.5515C57.0649 10.064 56.969 10.6726 56.969 11.3453C56.969 12.018 57.0969 12.6266 57.3526 13.1391C57.6083 13.6516 57.9919 14.068 58.4394 14.3883C58.9188 14.6766 59.3983 14.8368 60.0056 14.8368Z" fill="#FF385C"/>
</svg>
