<svg width="11" height="11" viewBox="0 0 11 11" fill="none" xmlns="http://www.w3.org/2000/svg">
  <path
    d="M2.677 5.6001C3.22007 5.59981 3.74986 5.76797 4.19336 6.0814C4.63686 6.39482 4.97223 6.83809 5.15325 7.3501H10.552V9.1001H5.15325C4.99286 9.55377 4.71085 9.95462 4.33804 10.2589C3.96523 10.5631 3.51597 10.759 3.03936 10.8252C2.56274 10.8913 2.0771 10.8252 1.63552 10.6341C1.19393 10.4429 0.813389 10.134 0.535472 9.7412C0.257555 9.34839 0.0929581 8.88674 0.059668 8.4067C0.0263779 7.92667 0.125676 7.44672 0.34671 7.0193C0.567745 6.59188 0.902011 6.23344 1.31298 5.98315C1.72395 5.73286 2.19581 5.60035 2.677 5.6001ZM2.677 7.3501C2.44494 7.3501 2.22238 7.44229 2.05828 7.60638C1.89419 7.77047 1.802 7.99303 1.802 8.2251C1.802 8.45716 1.89419 8.67972 2.05828 8.84382C2.22238 9.00791 2.44494 9.1001 2.677 9.1001C2.90907 9.1001 3.13163 9.00791 3.29572 8.84382C3.45981 8.67972 3.552 8.45716 3.552 8.2251C3.552 7.99303 3.45981 7.77047 3.29572 7.60638C3.13163 7.44229 2.90907 7.3501 2.677 7.3501ZM7.927 0.350098C8.40819 0.35035 8.88005 0.482862 9.29102 0.733153C9.70199 0.983443 10.0363 1.34188 10.2573 1.7693C10.4783 2.19672 10.5776 2.67667 10.5443 3.1567C10.511 3.63674 10.3464 4.09839 10.0685 4.4912C9.79061 4.88402 9.41007 5.19289 8.96849 5.38405C8.5269 5.57522 8.04126 5.64133 7.56465 5.57516C7.08803 5.50899 6.63877 5.31308 6.26597 5.00885C5.89316 4.70462 5.61115 4.30377 5.45075 3.8501H0.052002V2.1001H5.45075C5.63178 1.58809 5.96715 1.14482 6.41064 0.831397C6.85414 0.517971 7.38393 0.349813 7.927 0.350098ZM7.927 2.1001C7.69494 2.1001 7.47238 2.19229 7.30828 2.35638C7.14419 2.52047 7.052 2.74303 7.052 2.9751C7.052 3.20716 7.14419 3.42972 7.30828 3.59382C7.47238 3.75791 7.69494 3.8501 7.927 3.8501C8.15907 3.8501 8.38163 3.75791 8.54572 3.59382C8.70981 3.42972 8.802 3.20716 8.802 2.9751C8.802 2.74303 8.70981 2.52047 8.54572 2.35638C8.38163 2.19229 8.15907 2.1001 7.927 2.1001Z"
    fill="#222222" />
</svg>