<svg width="31" height="33" viewBox="0 0 31 33" fill="none" xmlns="http://www.w3.org/2000/svg">
  <path
    d="M29.6885 23.3102C29.545 22.9074 29.3773 22.5177 29.2178 22.1566C28.9722 21.6012 28.715 21.0447 28.4662 20.5068L28.4465 20.4641C26.2276 15.659 23.846 10.7882 21.368 5.98711L21.2628 5.78326C21.01 5.29299 20.7487 4.78606 20.4805 4.28796C20.1625 3.6576 19.7766 3.0637 19.3297 2.51678C18.8266 1.91661 18.1977 1.43392 17.4874 1.10275C16.7771 0.771584 16.0026 0.599999 15.2186 0.600098C14.4346 0.600196 13.6602 0.771975 12.9499 1.10332C12.2397 1.43467 11.6109 1.91752 11.108 2.51781C10.6616 3.06486 10.2759 3.65863 9.95778 4.28868C9.68727 4.79125 9.42351 5.30288 9.16846 5.79767L9.07078 5.98706C6.59267 10.7885 4.21109 15.6593 1.99221 20.464L1.95988 20.5339C1.7154 21.0631 1.46263 21.6103 1.22114 22.1564C1.06155 22.5172 0.894072 22.9066 0.750418 23.3104C0.338969 24.4105 0.207859 25.5954 0.368873 26.7586C0.539625 27.9341 1.01507 29.0448 1.74812 29.9805C2.48117 30.9162 3.4464 31.6445 4.5482 32.0933C5.38041 32.43 6.27024 32.6021 7.16822 32.6001C7.4503 32.6 7.73214 32.5836 8.01233 32.551C9.14806 32.4063 10.2434 32.0367 11.2342 31.464C12.5338 30.7339 13.8173 29.6639 15.2194 28.1349C16.6215 29.6639 17.905 30.7339 19.2046 31.464C20.1953 32.0368 21.2907 32.4063 22.4264 32.551C22.7066 32.5836 22.9885 32.6 23.2706 32.6001C24.1685 32.6021 25.0582 32.43 25.8904 32.0933C26.9922 31.6445 27.9575 30.9162 28.6906 29.9805C29.4237 29.0448 29.8992 27.9342 30.07 26.7586C30.2308 25.5953 30.0997 24.4104 29.6885 23.3102ZM15.2194 24.9771C13.4837 22.777 12.3699 20.7339 11.9791 19.0211C11.819 18.3793 11.7812 17.7132 11.8677 17.0574C11.936 16.5767 12.1126 16.1177 12.3842 15.7149C12.7184 15.2815 13.1479 14.9305 13.6395 14.689C14.1311 14.4476 14.6717 14.322 15.2196 14.322C15.7676 14.3221 16.3081 14.4477 16.7997 14.6893C17.2913 14.9308 17.7207 15.2818 18.0549 15.7152C18.3265 16.1182 18.5031 16.5772 18.5714 17.058C18.6577 17.7141 18.6198 18.3804 18.4594 19.0224C18.0682 20.735 16.9547 22.7775 15.2194 24.9771ZM28.0427 26.469C27.9233 27.2909 27.5908 28.0675 27.0783 28.7217C26.5657 29.376 25.8908 29.8853 25.1204 30.1991C24.3414 30.5112 23.496 30.6218 22.6628 30.5206C21.7967 30.409 20.962 30.124 20.209 29.6825C19.0522 29.0326 17.8812 28.0349 16.5635 26.5713C18.6612 23.9847 19.9711 21.6006 20.4561 19.4771C20.6744 18.5841 20.7217 17.658 20.5956 16.7476C20.4812 15.9633 20.19 15.2151 19.744 14.5594C19.2215 13.852 18.5399 13.2769 17.7541 12.8806C16.9682 12.4843 16.1001 12.2778 15.2196 12.2778C14.3392 12.2778 13.471 12.4842 12.6851 12.8804C11.8992 13.2766 11.2176 13.8516 10.6951 14.559C10.2491 15.2145 9.95797 15.9625 9.84346 16.7466C9.7173 17.6567 9.76436 18.5823 9.98217 19.475C10.4669 21.5994 11.7769 23.9841 13.8753 26.5715C12.5576 28.0349 11.3866 29.0326 10.2298 29.6826C9.47674 30.124 8.64213 30.4091 7.77601 30.5206C6.94271 30.6218 6.09731 30.5112 5.31826 30.1991C4.54787 29.8853 3.87298 29.376 3.36044 28.7218C2.84791 28.0675 2.51551 27.2909 2.39617 26.469C2.28138 25.6335 2.37907 24.7826 2.68024 23.9947C2.79472 23.6729 2.92869 23.3571 3.09466 22.9819C3.32946 22.4511 3.57863 21.9116 3.81965 21.3899L3.85202 21.3198C6.05849 16.542 8.42687 11.6983 10.8915 6.92304L10.9896 6.73293C11.2405 6.24611 11.5 5.74277 11.7618 5.2564C12.0122 4.75511 12.3153 4.28181 12.666 3.8445C12.9767 3.46913 13.3667 3.16691 13.808 2.95944C14.2494 2.75196 14.7312 2.64436 15.219 2.64432C15.7068 2.64428 16.1887 2.75181 16.63 2.95921C17.0714 3.16661 17.4614 3.46877 17.7722 3.84409C18.1231 4.28107 18.4263 4.75421 18.6765 5.25548C18.9359 5.73752 19.1931 6.23633 19.4419 6.71868L19.5473 6.92325C22.0118 11.698 24.3801 16.5416 26.5868 21.3202L26.6067 21.3632C26.8519 21.8937 27.1054 22.442 27.3441 22.9821C27.5103 23.3578 27.6445 23.6739 27.7587 23.9945C28.0597 24.7825 28.1574 25.6334 28.0427 26.469Z"
    fill="#FF385C" />
</svg>