<svg width="24" height="25" viewBox="0 0 24 25" fill="none" xmlns="http://www.w3.org/2000/svg">
  <path
    d="M15.55 13.1899C16.3 13.1899 16.96 12.7799 17.3 12.1599L20.88 5.66994C20.9643 5.51837 21.0075 5.34741 21.0054 5.174C21.0034 5.00058 20.956 4.83071 20.8681 4.6812C20.7803 4.53169 20.6549 4.40772 20.5043 4.32156C20.3538 4.2354 20.1834 4.19003 20.01 4.18994H5.21L4.27 2.18994H1V4.18994H3L6.6 11.7799L5.25 14.2199C4.52 15.5599 5.48 17.1899 7 17.1899H19V15.1899H7L8.1 13.1899H15.55ZM6.16 6.18994H18.31L15.55 11.1899H8.53L6.16 6.18994ZM7 18.1899C5.9 18.1899 5.01 19.0899 5.01 20.1899C5.01 21.2899 5.9 22.1899 7 22.1899C8.1 22.1899 9 21.2899 9 20.1899C9 19.0899 8.1 18.1899 7 18.1899ZM17 18.1899C15.9 18.1899 15.01 19.0899 15.01 20.1899C15.01 21.2899 15.9 22.1899 17 22.1899C18.1 22.1899 19 21.2899 19 20.1899C19 19.0899 18.1 18.1899 17 18.1899Z"
    fill="#1C1D1F" />
</svg>