<svg width="91" height="35" viewBox="0 0 91 35" fill="none" xmlns="http://www.w3.org/2000/svg">
  <g clip-path="url(#clip0_3_4576)">
    <path
      d="M14.05 8.30194L7.024 4.24594L0 8.30194V4.24594L7.025 0.189941L14.051 4.24594L14.05 8.30194Z"
      fill="#A435F0" />
    <path
      d="M0 11.708H3.68V20.649C3.68 22.959 5.405 24.085 7.025 24.085C8.659 24.085 10.371 22.929 10.371 20.618V11.708H14.051V20.862C14.051 22.99 13.382 24.632 12.044 25.758C10.705 26.883 9.033 27.431 6.994 27.431C4.957 27.431 3.284 26.884 1.977 25.758C0.669 24.633 0 23.052 0 20.953V11.708ZM45.866 22.82C44.752 23.812 43.483 24.298 42.036 24.298C39.396 24.298 37.626 22.794 37.426 20.465H49.316C49.316 20.465 49.396 19.713 49.396 19.007C49.396 16.817 48.696 14.992 47.266 13.502C45.868 12.012 44.044 11.282 41.823 11.282C39.482 11.282 37.565 12.012 36.044 13.502C34.554 14.992 33.794 16.938 33.794 19.372V19.492C33.794 21.895 34.554 23.811 36.044 25.241C37.534 26.67 39.511 27.4 41.914 27.4C44.708 27.4 46.931 26.298 48.599 24.398L45.866 22.82ZM38.872 15.357C39.692 14.718 40.697 14.384 41.822 14.384C42.886 14.384 43.768 14.718 44.529 15.388C45.255 15.998 45.647 16.747 45.681 17.608H37.52C37.638 16.718 38.088 15.968 38.873 15.358L38.872 15.357ZM82.91 29.466C81.417 32.991 79.855 34.19 77.46 34.19H75.8V30.928H77.142C77.966 30.928 78.732 30.618 79.462 28.934L80.192 27.248L73.896 11.708H77.637L82.108 22.9L86.701 11.708H90.441L82.91 29.466ZM28.377 5.83899V13.096C27.171 12.016 25.295 11.373 23.481 11.373C21.321 11.373 19.497 12.133 18.007 13.683C16.547 15.204 15.817 17.089 15.817 19.37C15.817 21.652 16.547 23.537 18.007 25.088C19.497 26.609 21.322 27.37 23.481 27.37C25.971 27.37 27.545 26.391 28.377 25.624V27.035H32.027V5.83999L28.377 5.83899ZM27.282 22.717C26.4 23.599 25.275 24.056 23.967 24.056C22.659 24.056 21.595 23.599 20.713 22.717C19.863 21.835 19.436 20.71 19.436 19.372C19.436 18.033 19.862 16.908 20.713 16.026C21.595 15.144 22.659 14.688 23.967 14.688C25.275 14.688 26.4 15.144 27.282 16.026C28.194 16.908 28.652 18.033 28.652 19.372C28.652 20.71 28.194 21.835 27.282 22.717ZM68.222 11.404C65.45 11.404 64.009 12.554 63.022 13.662C62.627 12.909 61.515 11.404 58.917 11.404C56.721 11.404 55.427 12.514 54.781 13.304V11.71H51.163V27.037H54.781V18.217C54.781 16.149 56.059 14.659 57.761 14.659C59.496 14.659 60.499 15.967 60.499 18.065V27.036H64.118V18.216C64.118 16.118 65.364 14.658 67.158 14.658C68.892 14.658 69.895 15.966 69.895 18.063V27.035H73.545V17.547C73.545 13.551 71.397 11.405 68.222 11.405V11.404Z"
      fill="black" />
  </g>
  <defs>
    <clipPath id="clip0_3_4576">
      <rect width="91" height="34" fill="white" transform="translate(0 0.189941)" />
    </clipPath>
  </defs>
</svg>